<svg width="55" height="64" viewBox="0 0 55 64" fill="none" xmlns="http://www.w3.org/2000/svg">
<path d="M48.7105 51.4702C41.5184 56.6022 24.3818 64 24.3818 64C24.3818 64 22.7016 55.6127 21.035 54.8415L37.7551 43.3901C37.7551 43.3901 24.9282 34.6684 17.299 29.3453C15.4207 28.035 13.8498 26.9294 12.8731 26.2128L12.1218 25.6532C9.00729 23.2169 -3.69666 5.77351 1.05024 0C1.05024 0 8.69993 0.621022 14.1435 6.28534C18.7986 10.9957 23.9149 15.2276 29.4155 18.9174C31.3416 20.2823 52.8973 36.8044 53.7989 39.3909C54.7005 41.9774 55.9094 46.3109 48.7105 51.4702Z" fill="#FAA146"/>
</svg>
