<svg width="44" height="115" viewBox="0 0 44 115" fill="none" xmlns="http://www.w3.org/2000/svg">
<path d="M39.512 1.83176e-06C39.512 1.83176e-06 29.0575 -0.033979 24.3302 9.1546C19.603 18.3432 19.0928 28.0619 17.9365 31.5076C16.7802 34.9533 13.08 53.6023 11.9305 56.5383C10.7809 59.4743 4.64567 81.0593 2.98601 92.3004C1.32636 103.541 0 114.776 0 114.776L10.6721 115C10.6721 115 16.1476 89.0721 19.3445 83.2002C22.5414 77.3282 23.9493 59.7326 25.3505 55.8995C26.7517 52.0664 35.4513 25.1191 37.2402 23.2093C39.029 21.2996 48.436 1.69907 39.512 1.83176e-06Z" fill="#FAA146"/>
</svg>
