<svg width="20" height="31" viewBox="0 0 20 31" fill="none" xmlns="http://www.w3.org/2000/svg">
<path d="M6.11464 1.72901C5.30136 3.06866 4.74256 4.5468 4.4663 6.08913C4.31583 7.64046 3.01629 9.95721 2.4486 11.242C1.88091 12.5268 0.0615567 18.3152 0 19.8256C0 20.4406 1.36793 24.3292 1.1559 25.5662C0.943872 26.8031 0.24622 29.277 1.36108 29.4411C2.47594 29.6051 3.74811 27.5822 3.74811 27.5822C3.72076 27.8993 3.78561 28.2176 3.93484 28.4989C4.08406 28.7801 4.31135 29.0123 4.58941 29.1677C6.42244 30.0151 7.40049 29.2634 7.40049 29.2634C7.40049 29.2634 8.08444 30.5277 8.92572 30.6917C10.8066 31.0676 11.7231 30.3158 11.7231 30.3158C12.3356 30.7751 13.0846 31.0158 13.8503 30.9992C14.3359 30.9813 14.8085 30.8369 15.2212 30.5804C15.6339 30.3239 15.9723 29.9641 16.2031 29.5367C16.2031 29.5367 18.3029 29.9605 18.939 28.9763C19.575 27.9922 19.4451 26.9261 19.6981 26.0719C19.9512 25.2176 19.7597 17.1876 17.0307 11.3992C14.3017 5.61074 17.7147 0 17.7147 0L6.11464 1.72901Z" fill="#EEA886"/>
</svg>
