<svg width="46" height="46" viewBox="0 0 46 46" fill="none" xmlns="http://www.w3.org/2000/svg">
<path d="M23 45.9624C18.451 45.9624 14.0042 44.6146 10.2219 42.0894C6.43955 39.5642 3.49158 35.975 1.75077 31.7757C0.00995109 27.5765 -0.445506 22.9557 0.441954 18.4978C1.32941 14.0399 3.51992 9.94503 6.73653 6.73105C9.95314 3.51708 14.0514 1.32832 18.5129 0.441587C22.9745 -0.445147 27.599 0.00995861 31.8017 1.74935C36.0044 3.48874 39.5965 6.43429 42.1238 10.2135C44.6511 13.9928 46 18.436 46 22.9812C45.9945 29.0745 43.5695 34.9167 39.2574 39.2253C34.9453 43.5339 29.0983 45.9569 23 45.9624ZM23 4.45513C19.3315 4.45513 15.7454 5.54207 12.6952 7.5785C9.64496 9.61493 7.2676 12.5094 5.86373 15.8958C4.45987 19.2823 4.09253 23.0087 4.80821 26.6037C5.5239 30.1988 7.29044 33.501 9.88445 36.0929C12.4785 38.6848 15.7834 40.4499 19.3814 41.165C22.9794 41.8801 26.7088 41.5131 30.0981 40.1104C33.4873 38.7077 36.3842 36.3322 38.4223 33.2845C40.4604 30.2368 41.5482 26.6536 41.5482 22.9881C41.5463 18.0728 39.5918 13.3592 36.1139 9.8829C32.6361 6.40659 27.9194 4.45187 23 4.4482V4.45513Z" fill="#458DD1"/>
</svg>
