<svg width="36" height="36" viewBox="0 0 36 36" fill="none" xmlns="http://www.w3.org/2000/svg">
<path d="M23 27.25H13C9.35 27.25 7.25 25.15 7.25 21.5V14.5C7.25 10.85 9.35 8.75 13 8.75H23C26.65 8.75 28.75 10.85 28.75 14.5V21.5C28.75 25.15 26.65 27.25 23 27.25ZM13 10.25C10.14 10.25 8.75 11.64 8.75 14.5V21.5C8.75 24.36 10.14 25.75 13 25.75H23C25.86 25.75 27.25 24.36 27.25 21.5V14.5C27.25 11.64 25.86 10.25 23 10.25H13Z" fill="#1C1C1E" fill-opacity="0.72"/>
<path d="M17.9998 18.87C17.1598 18.87 16.3098 18.61 15.6598 18.08L12.5298 15.58C12.2098 15.32 12.1498 14.85 12.4098 14.53C12.6698 14.21 13.1398 14.15 13.4598 14.41L16.5898 16.91C17.3498 17.52 18.6398 17.52 19.3998 16.91L22.5298 14.41C22.8498 14.15 23.3298 14.2 23.5798 14.53C23.8398 14.85 23.7898 15.33 23.4598 15.58L20.3298 18.08C19.6898 18.61 18.8398 18.87 17.9998 18.87Z" fill="#1C1C1E" fill-opacity="0.72"/>
</svg>
