<svg width="22" height="16" viewBox="0 0 22 16" fill="none" xmlns="http://www.w3.org/2000/svg">
<path d="M9.80492 16L0.622445 8.00891C0.260511 7.69493 0.0382095 7.25015 0.00448284 6.77242C-0.0292438 6.29468 0.128363 5.82313 0.442601 5.46149C0.756838 5.09985 1.20199 4.87775 1.68012 4.84406C2.15824 4.81036 2.63017 4.96781 2.9921 5.28179L9.48755 10.9192L18.7194 0.602711C18.8773 0.425959 19.0685 0.282019 19.2821 0.179102C19.4957 0.076185 19.7274 0.0163084 19.9642 0.00289407C20.2009 -0.0105203 20.438 0.0227894 20.6619 0.10092C20.8857 0.179051 21.092 0.300474 21.2689 0.458255C21.4458 0.616036 21.5899 0.807081 21.6929 1.02049C21.7959 1.2339 21.8557 1.46549 21.8692 1.70204C21.8826 1.93859 21.8493 2.17547 21.7711 2.39915C21.6929 2.62283 21.5714 2.82892 21.4134 3.00568L9.80492 16Z" fill="#518FE3"/>
</svg>
