<svg width="12" height="12" viewBox="0 0 12 12" fill="none" xmlns="http://www.w3.org/2000/svg">
<path d="M3.94357 11.9997C3.4086 12.0056 2.87731 11.9108 2.37742 11.7203C1.91206 11.548 1.48462 11.287 1.11888 10.9518C0.771483 10.6248 0.491247 10.2333 0.293849 9.79912C0.0948815 9.34075 -0.00516587 8.84562 0.000205362 8.34602C-0.00554989 7.82069 0.119374 7.30218 0.363772 6.83703C0.606338 6.37081 0.953279 5.96679 1.37759 5.65638C1.84751 5.31722 2.37264 5.06195 2.92975 4.90188C3.5713 4.70893 4.23851 4.61471 4.90845 4.62244C5.41486 4.62032 5.92041 4.66474 6.41868 4.75517C6.86912 4.83337 7.30983 4.95985 7.73314 5.13242V4.43382C7.75392 4.11126 7.70677 3.78793 7.59477 3.4847C7.48277 3.18147 7.30839 2.90506 7.08289 2.67332C6.54391 2.22584 5.85189 2.00538 5.15316 2.05855C4.5371 2.05981 3.9262 2.17101 3.34927 2.38689C2.70935 2.63794 2.10149 2.9639 1.53839 3.35796L0.636441 1.48569C2.05236 0.522002 3.72664 0.00820252 5.43983 0.0116235C6.83634 -0.07848 8.21591 0.357739 9.3063 1.23419C9.77939 1.67993 10.1496 2.22335 10.3911 2.8266C10.6326 3.42985 10.7396 4.07845 10.7046 4.72723V8.31808C10.6829 8.54978 10.7422 8.78186 10.8724 8.97477C10.9408 9.04854 11.0243 9.1067 11.1172 9.14529C11.2101 9.18387 11.3103 9.20196 11.4108 9.19832V11.7063C10.9836 11.8013 10.5479 11.8528 10.1104 11.86C9.65155 11.8891 9.19687 11.7583 8.82386 11.4898C8.51987 11.2395 8.31835 10.8865 8.25753 10.4977L8.1946 9.86201C7.70141 10.5161 7.05897 11.043 6.32078 11.3989C5.58482 11.7783 4.77155 11.9839 3.94357 11.9997ZM4.7826 9.84104C5.26111 9.83945 5.73521 9.74946 6.18096 9.57557C6.58167 9.4343 6.94006 9.19397 7.22273 8.87697C7.3695 8.79468 7.49398 8.67786 7.58536 8.53665C7.67674 8.39543 7.73225 8.23408 7.74712 8.06658V6.73923C7.37369 6.6047 6.99029 6.49958 6.60045 6.42484C6.20945 6.34336 5.81127 6.30123 5.41186 6.2991C4.74737 6.27008 4.09095 6.45363 3.53806 6.82305C3.32125 6.96478 3.14357 7.1587 3.0214 7.38699C2.89922 7.61527 2.83646 7.87059 2.83888 8.12945C2.83439 8.36651 2.88362 8.60152 2.9829 8.81686C3.08219 9.03221 3.22895 9.22232 3.41219 9.37297C3.79888 9.68661 4.28467 9.85253 4.7826 9.84104Z" fill="#458DD1"/>
</svg>
