<svg width="162" height="32" viewBox="0 0 162 32" fill="none" xmlns="http://www.w3.org/2000/svg">
<path d="M21.2579 16.822L21.3943 16.8893L19.5191 24.1227L19.2975 24.8797L18.1212 24.1227H0V23.9545C0.750079 23.6741 1.37515 23.1414 1.8752 22.3564C2.38662 21.5602 2.64232 20.635 2.64232 19.5808V1.96817C2.64232 0.981282 1.76155 0.386905 0 0.185042V0H11.1319V0.185042C10.1318 0.274759 9.38167 0.454193 8.88162 0.723345C8.38157 0.981282 8.13154 1.39622 8.13154 1.96817V23.5676H9.59761C10.8023 23.5676 11.8819 23.4667 12.8366 23.2648C13.7912 23.0517 14.5811 22.8218 15.2062 22.5751C15.8426 22.3172 16.5188 21.8742 17.2348 21.2462C17.9621 20.6181 18.519 20.0854 18.9054 19.6481C19.2918 19.2107 19.8771 18.5098 20.6613 17.5453C20.9227 17.2201 21.1216 16.979 21.2579 16.822Z" fill="#161616"/>
<path d="M32.5603 7.1998C35.4469 7.1998 37.7369 7.97922 39.4303 9.53806C41.135 11.0857 41.9874 13.166 41.9874 15.779C41.9874 18.3247 41.1293 20.3938 39.4133 21.9863C37.7085 23.5676 35.4242 24.3582 32.5603 24.3582C29.6736 24.3582 27.3779 23.5844 25.6732 22.0368C23.9798 20.4892 23.1331 18.4032 23.1331 15.779C23.1331 13.2333 23.9855 11.1698 25.6902 9.58852C27.4063 7.99604 29.6963 7.1998 32.5603 7.1998ZM33.924 23.7863C36.0834 23.7863 37.163 22.0816 37.163 18.6724C37.163 17.0463 36.9641 15.437 36.5664 13.8445C36.18 12.2408 35.5151 10.8334 34.5718 9.62217C33.6286 8.39977 32.5034 7.78857 31.1965 7.78857C29.0372 7.78857 27.9575 9.51002 27.9575 12.9529C27.9575 14.5566 28.1507 16.1603 28.5371 17.764C28.9349 19.3565 29.6111 20.7583 30.5657 21.9695C31.5204 23.1807 32.6398 23.7863 33.924 23.7863Z" fill="#161616"/>
<path d="M55.8127 7.1998C58.3243 7.1998 60.8246 7.62596 63.3135 8.47827V25.3675C63.3135 26.0516 62.6487 26.8703 61.319 27.8235C60.0007 28.7768 58.4209 29.5955 56.5798 30.2796C54.7387 30.9749 53.1477 31.3225 51.8066 31.3225C50.6701 31.3225 49.5734 31.0702 48.5165 30.5655C47.4709 30.0609 46.647 29.2702 46.0446 28.1936L50.6133 26.8479C51.0565 27.7899 51.5623 28.5245 52.1305 29.0515C52.6988 29.5786 53.1931 29.8926 53.6136 29.9936C54.0341 30.0945 54.5114 30.145 55.0456 30.145C55.9093 30.145 56.648 29.7749 57.2617 29.0347C57.8754 28.3058 58.1823 27.2516 58.1823 25.8722V22.9115C56.8981 23.876 55.2331 24.3582 53.1874 24.3582C50.6076 24.3582 48.562 23.6461 47.0504 22.2218C45.5389 20.7976 44.7831 18.9023 44.7831 16.536C44.7831 13.8445 45.7321 11.6184 47.63 9.85768C49.528 8.08576 52.2555 7.1998 55.8127 7.1998ZM55.5059 23.2648C56.6196 23.2648 57.5118 22.8835 58.1823 22.1209V9.68946C57.0685 8.46706 55.79 7.85586 54.3467 7.85586C52.8351 7.85586 51.6986 8.45024 50.9372 9.63899C50.1871 10.8165 49.8121 12.4314 49.8121 14.4837C49.8121 16.9846 50.3519 19.0761 51.4316 20.7583C52.5226 22.4293 53.8807 23.2648 55.5059 23.2648Z" fill="#161616"/>
<path d="M76.0649 7.1998C78.9515 7.1998 81.2415 7.97922 82.9349 9.53806C84.6396 11.0857 85.492 13.166 85.492 15.779C85.492 18.3247 84.6339 20.3938 82.9179 21.9863C81.2131 23.5676 78.9288 24.3582 76.0649 24.3582C73.1782 24.3582 70.8825 23.5844 69.1778 22.0368C67.4844 20.4892 66.6377 18.4032 66.6377 15.779C66.6377 13.2333 67.4901 11.1698 69.1948 9.58852C70.9109 7.99604 73.2009 7.1998 76.0649 7.1998ZM77.4286 23.7863C79.588 23.7863 80.6676 22.0816 80.6676 18.6724C80.6676 17.0463 80.4687 15.437 80.071 13.8445C79.6846 12.2408 79.0197 10.8334 78.0764 9.62217C77.1332 8.39977 76.008 7.78857 74.7011 7.78857C72.5418 7.78857 71.4621 9.51002 71.4621 12.9529C71.4621 14.5566 71.6553 16.1603 72.0417 17.764C72.4395 19.3565 73.1157 20.7583 74.0703 21.9695C75.025 23.1807 76.1444 23.7863 77.4286 23.7863Z" fill="#161616"/>
<path d="M93.8281 24.6778L89.3106 23.8199L89.4129 21.7508V5.90451C89.4129 5.24285 89.1401 4.88959 88.5946 4.84473C88.0491 4.78865 87.1853 4.95687 86.0034 5.34939V5.14752L94.8339 1.07661L94.5611 2.7588V7.41849H98.8741L98.7036 8.24277H94.5611V23.5003L99.7264 23.3657V23.5003L94.5611 24.6778H93.8281Z" fill="#161616"/>
<path d="M115.052 7.41849H120.422V7.55307C119.797 7.77736 119.251 8.15866 118.785 8.69696C118.319 9.22405 117.785 10.1885 117.183 11.5903L111.029 25.9899C110.722 26.674 110.495 27.1731 110.347 27.4871C110.199 27.8123 109.949 28.2441 109.597 28.7824C109.256 29.3319 108.909 29.7356 108.557 29.9936C108.205 30.2627 107.75 30.4982 107.193 30.7001C106.636 30.9132 106.011 31.0197 105.318 31.0197L103.988 29.4889C106.989 29.4889 109.057 28.3899 110.193 26.1918L102.659 9.75674L101.363 7.41849H110.159V7.55307C107.875 7.83343 107.273 9.16237 108.352 11.5399L112.461 20.9602L116.518 11.5399C116.825 10.8334 116.995 10.2334 117.029 9.73992C117.064 9.24648 116.956 8.85957 116.706 8.57921C116.467 8.28763 116.228 8.08015 115.99 7.95679C115.762 7.82222 115.45 7.68764 115.052 7.55307V7.41849Z" fill="#161616"/>
<path d="M131.912 7.1998C135.105 7.1998 137.56 7.9624 139.276 9.48759C141.004 11.0016 141.867 12.9866 141.867 15.4426C141.867 18.2014 140.867 20.377 138.867 21.9695C136.867 23.562 134.349 24.3582 131.315 24.3582C130.451 24.3582 129.536 24.2461 128.57 24.0218V28.2609C128.57 29.2029 128.69 29.887 128.928 30.3132C129.178 30.7394 129.684 31.1206 130.446 31.4571V31.558L121.854 30.4309V30.33C122.456 30.173 122.871 29.9151 123.098 29.5562C123.326 29.1973 123.439 28.5805 123.439 27.7058V9.33619C122.905 8.98854 122.132 8.78668 121.121 8.7306V8.57921C122.769 8.11941 124.632 7.77736 126.712 7.55307C128.803 7.31756 130.537 7.1998 131.912 7.1998ZM132.713 23.7358C135.361 23.7358 136.691 21.605 136.702 17.3435C136.702 16.1996 136.594 15.1005 136.378 14.0463C136.173 12.981 135.85 11.9604 135.406 10.9847C134.963 10.0091 134.327 9.23526 133.497 8.66332C132.679 8.08015 131.707 7.78857 130.582 7.78857C130.23 7.78857 129.917 7.811 129.644 7.85586C129.372 7.90072 129.133 7.9624 128.928 8.0409C128.735 8.10819 128.616 8.14183 128.57 8.14183V21.9527C130.002 23.1414 131.383 23.7358 132.713 23.7358Z" fill="#161616"/>
<path d="M161.83 20.7751L162 20.9265C161.466 21.9359 160.511 22.7601 159.136 23.3994C157.761 24.0386 156.164 24.3582 154.346 24.3582C151.414 24.3582 149.061 23.5676 147.288 21.9863C145.527 20.4051 144.646 18.3976 144.646 15.9641C144.646 13.295 145.657 11.1698 147.68 9.58852C149.703 7.99604 152.113 7.1998 154.908 7.1998C157.636 7.1998 159.579 8.00726 160.739 9.62217C161.557 10.7661 161.733 11.8875 161.267 12.9866C160.801 14.0183 159.915 14.5398 158.608 14.551H149.845C149.868 17.007 150.544 18.9584 151.874 20.4051C153.204 21.8517 154.914 22.5751 157.005 22.5751C159.29 22.5639 160.898 21.9639 161.83 20.7751ZM153.834 7.72129C152.766 7.72129 151.846 8.29323 151.073 9.43713C150.3 10.5698 149.891 12.0782 149.845 13.9622L155.948 13.8949C156.744 13.8949 157.21 13.3791 157.346 12.3473C157.505 11.181 157.204 10.0876 156.443 9.06704C155.749 8.16987 154.88 7.72129 153.834 7.72129Z" fill="#161616"/>
</svg>
