<svg width="11" height="12" viewBox="0 0 11 12" fill="none" xmlns="http://www.w3.org/2000/svg">
<path d="M2.4 6H3.6V7.2H2.4V6ZM10.8 2.4V10.8C10.8 11.1183 10.6736 11.4235 10.4485 11.6485C10.2235 11.8736 9.91826 12 9.6 12H1.2C0.534 12 0 11.46 0 10.8V2.4C0 2.08174 0.126428 1.77652 0.351472 1.55147C0.576516 1.32643 0.88174 1.2 1.2 1.2H1.8V0H3V1.2H7.8V0H9V1.2H9.6C9.91826 1.2 10.2235 1.32643 10.4485 1.55147C10.6736 1.77652 10.8 2.08174 10.8 2.4ZM1.2 3.6H9.6V2.4H1.2V3.6ZM9.6 10.8V4.8H1.2V10.8H9.6ZM7.2 7.2V6H8.4V7.2H7.2ZM4.8 7.2V6H6V7.2H4.8ZM2.4 8.4H3.6V9.6H2.4V8.4ZM7.2 9.6V8.4H8.4V9.6H7.2ZM4.8 9.6V8.4H6V9.6H4.8Z" fill="#1C2120" fill-opacity="0.5"/>
</svg>
