<svg width="161" height="187" viewBox="0 0 161 187" fill="none" xmlns="http://www.w3.org/2000/svg">
<path d="M73.7173 40.9889C85.9833 39.3728 103.312 35.0408 103.312 35.0408L127.029 34.0766C127.029 34.0766 148.775 38.8636 157.364 42.7339C158.18 43.1006 158.18 62.133 160.416 67.1237L153.307 82.1161C153.307 82.1161 149.23 111.789 148.347 124.988C147.959 131.045 156.814 181.801 156.814 181.801C156.814 181.801 147.3 184.591 131.14 186.377C114.98 188.163 74.5123 185.732 74.2609 183.817C74.0095 181.903 82.0894 112.698 82.4156 109.127C82.9661 103.627 80.5197 74.389 80.5197 74.389C76.7821 71.4965 43.9729 56.28 34.9891 48.3493C32.5971 46.224 22.4852 36.3852 19.6107 32.9902C9.4173 20.965 1.09269 10.651 0.0733506 8.42384C-1.07511 7.16089 11.6259 0.377648 12.7539 0.00419622C13.7257 -0.314936 26.9703 17.6583 32.2641 23.3823C34.6222 25.9353 44.4418 33.0717 44.4418 33.0717C44.4418 33.0717 66.0586 41.4302 73.7173 40.9889Z" fill="#F9571E"/>
</svg>
