<svg width="21" height="23" viewBox="0 0 21 23" fill="none" xmlns="http://www.w3.org/2000/svg">
<path d="M0 8.67806C0.121075 9.46479 0.369013 10.2267 0.734167 10.9341C0.734167 10.9341 1.66919 12.0483 2.28561 12.8788C2.47954 13.1487 2.64579 13.384 2.73583 13.5708C3.31954 14.9092 4.11465 16.1453 5.09072 17.2317C6.47595 18.6158 11.7467 22.9965 11.7467 22.9965L16.2903 19.1487L21 17.038C21 17.038 18.3612 5.5777 17.2391 4.15209C17.135 4.01315 17.0216 3.88136 16.8998 3.75762C15.8401 2.6365 14.5726 2.25588 13.9492 1.72993C13.7207 1.53616 11.2965 -0.2078 10.4307 0.0205754C9.94313 0.113384 9.48712 0.328457 9.1055 0.645608C8.72388 0.96276 8.42919 1.37159 8.24904 1.83373C8.24904 1.83373 5.92877 2.52578 5.02837 3.90987C4.39859 4.10384 3.82153 4.43914 3.34135 4.89014C2.86118 5.34114 2.4906 5.89588 2.25792 6.51195C2.25792 6.51195 0.0969657 7.29397 0 8.67806Z" fill="#EFAA88"/>
</svg>
