<svg width="36" height="36" viewBox="0 0 36 36" fill="none" xmlns="http://www.w3.org/2000/svg">
<path d="M24 16.75C23.59 16.75 23.25 16.41 23.25 16V14C23.25 10.85 22.36 8.75 18 8.75C13.64 8.75 12.75 10.85 12.75 14V16C12.75 16.41 12.41 16.75 12 16.75C11.59 16.75 11.25 16.41 11.25 16V14C11.25 11.1 11.95 7.25 18 7.25C24.05 7.25 24.75 11.1 24.75 14V16C24.75 16.41 24.41 16.75 24 16.75Z" fill="#1C1C1E" fill-opacity="0.72"/>
<path d="M18 25.25C16.21 25.25 14.75 23.79 14.75 22C14.75 20.21 16.21 18.75 18 18.75C19.79 18.75 21.25 20.21 21.25 22C21.25 23.79 19.79 25.25 18 25.25ZM18 20.25C17.04 20.25 16.25 21.04 16.25 22C16.25 22.96 17.04 23.75 18 23.75C18.96 23.75 19.75 22.96 19.75 22C19.75 21.04 18.96 20.25 18 20.25Z" fill="#1C1C1E" fill-opacity="0.72"/>
<path d="M23 28.75H13C8.59 28.75 7.25 27.41 7.25 23V21C7.25 16.59 8.59 15.25 13 15.25H23C27.41 15.25 28.75 16.59 28.75 21V23C28.75 27.41 27.41 28.75 23 28.75ZM13 16.75C9.42 16.75 8.75 17.43 8.75 21V23C8.75 26.57 9.42 27.25 13 27.25H23C26.58 27.25 27.25 26.57 27.25 23V21C27.25 17.43 26.58 16.75 23 16.75H13Z" fill="#1C1C1E"/>
</svg>
