<svg width="10" height="12" viewBox="0 0 10 12" fill="none" xmlns="http://www.w3.org/2000/svg">
<path d="M0.0018938 5.45046C0.00438137 4.77642 0.130569 4.10856 0.374222 3.48003C0.616851 2.83148 0.984677 2.23689 1.45678 1.73007C1.94633 1.20333 2.53428 0.777361 3.1875 0.476157C3.91546 0.149636 4.70646 -0.0126713 5.50429 0.000771843C6.44399 -0.0137234 7.37035 0.224218 8.18656 0.689733C8.90428 1.09199 9.49077 1.69238 9.87588 2.41903L7.93143 3.79695C7.81747 3.54122 7.65867 3.3079 7.46254 3.10799C7.27886 2.92225 7.06712 2.76649 6.83507 2.64639C6.61729 2.53344 6.38541 2.45002 6.14555 2.39836C5.9186 2.35232 5.68759 2.32923 5.45602 2.32946C5.01569 2.31982 4.57983 2.41923 4.1873 2.61883C3.83995 2.8078 3.53493 3.06569 3.29092 3.37669C3.05418 3.69368 2.87665 4.05078 2.76688 4.4308C2.65697 4.81622 2.60128 5.21505 2.6014 5.61581C2.59816 6.04196 2.66574 6.46568 2.80136 6.86971C2.92453 7.25723 3.12117 7.61745 3.38056 7.93072C3.62636 8.23999 3.93706 8.49162 4.29074 8.6679C4.66376 8.85103 5.07494 8.94312 5.49051 8.9366C5.72267 8.93412 5.95388 8.9064 6.18003 8.85392C6.41952 8.79449 6.65101 8.70659 6.86956 8.59212C7.09714 8.46861 7.30416 8.31057 7.48323 8.12363C7.67612 7.92535 7.82839 7.69131 7.93143 7.43467L10 8.65412C9.8343 9.06153 9.58535 9.42994 9.26909 9.73579C8.93883 10.0614 8.55962 10.3334 8.14519 10.5419C7.7065 10.7605 7.24365 10.927 6.76614 11.0379C6.31428 11.1455 5.85158 11.201 5.38708 11.2033C4.63104 11.2129 3.88299 11.0478 3.20128 10.721C2.5483 10.4079 1.96456 9.96754 1.48437 9.42576C1.00343 8.89441 0.626825 8.27739 0.374222 7.60691C0.109244 6.91959 -0.0172758 6.18675 0.0018938 5.45046Z" fill="#458DD1"/>
</svg>
