<svg width="9" height="11" viewBox="0 0 9 11" fill="none" xmlns="http://www.w3.org/2000/svg">
<path d="M7.22391 3.23981C7.12823 3.14933 7.02106 3.07186 6.90512 3.00937C6.68541 2.88205 6.45898 2.76667 6.22682 2.66373C5.93725 2.5341 5.63786 2.42758 5.33146 2.34519C5.01654 2.25197 4.68994 2.20405 4.36149 2.20285C3.46614 2.20285 3.00489 2.50784 3.00489 3.10426C2.9978 3.26871 3.05082 3.43011 3.1541 3.55835C3.26941 3.69556 3.41283 3.80649 3.57466 3.88366C3.80356 3.99316 4.04194 4.08164 4.28687 4.14799L5.28397 4.43942C5.75839 4.5655 6.22497 4.71938 6.68127 4.90028C7.06683 5.04665 7.42466 5.25751 7.73942 5.52382C8.03233 5.76775 8.26453 6.07632 8.41772 6.42521C8.58687 6.87904 8.66438 7.36185 8.64576 7.84577C8.62713 8.32969 8.51273 8.80513 8.30919 9.24464C8.09305 9.64994 7.78391 9.99833 7.40706 10.2613C7.0136 10.5269 6.57436 10.7177 6.1115 10.8238C5.61817 10.9411 5.11278 11.0002 4.60567 11C4.19918 10.9979 3.79338 10.9662 3.39151 10.9051C2.98117 10.8451 2.57549 10.7568 2.17736 10.6408C1.78599 10.5274 1.40296 10.387 1.03103 10.2206C0.670473 10.0658 0.325268 9.87745 0 9.65806L1.09885 7.48928C1.2169 7.60292 1.34914 7.70087 1.49227 7.7807C1.75723 7.94121 2.03385 8.08168 2.3198 8.20091C2.6787 8.35392 3.04821 8.48076 3.42543 8.58045C3.82471 8.69414 4.23799 8.75118 4.65316 8.74989C5.53495 8.74989 5.97583 8.47879 5.97583 7.94337C5.9791 7.85077 5.96334 7.7585 5.92951 7.67224C5.89567 7.58598 5.8445 7.50755 5.77914 7.44183C5.6186 7.29242 5.43251 7.17306 5.22972 7.08941C4.96272 6.96702 4.68591 6.86726 4.40219 6.7912L3.36439 6.48622C2.92001 6.35614 2.48677 6.19068 2.06883 5.99145C1.73542 5.83825 1.43038 5.62973 1.16668 5.37471C0.930898 5.15115 0.74787 4.87796 0.630836 4.57497C0.510412 4.23343 0.452958 3.87292 0.461261 3.51091C0.448237 2.99136 0.557412 2.47601 0.780043 2.00631C0.984714 1.58262 1.27857 1.20809 1.6415 0.908356C2.01572 0.60149 2.44671 0.3712 2.90992 0.23061C3.40555 0.0735246 3.92294 -0.00424488 4.44289 0.000178604C4.81415 -0.00100013 5.18458 0.0353336 5.54852 0.10862C5.90458 0.175719 6.25579 0.266278 6.59988 0.379715C6.91922 0.48739 7.23181 0.614139 7.53594 0.759262C7.82083 0.899329 8.08535 1.04165 8.32954 1.18623L7.22391 3.23981Z" fill="#458DD1"/>
</svg>
