<svg width="17" height="15" viewBox="0 0 17 15" fill="none" xmlns="http://www.w3.org/2000/svg">
<path d="M0.00538613 10.5338C0.00538613 10.5338 -0.185056 3.3847 1.6989 1.86246C3.58286 0.34022 3.80051 2.92259 3.80051 2.92259C3.80051 2.92259 3.54208 0.374191 5.60287 0.0276092C7.66366 -0.318972 7.74525 2.71193 7.74525 2.71193C7.79468 2.43935 7.9005 2.18008 8.05592 1.95068C8.21135 1.72129 8.41296 1.52681 8.64788 1.3797C8.88281 1.23259 9.14587 1.13611 9.42025 1.09637C9.69463 1.05663 9.97425 1.07452 10.2413 1.14892C12.4041 1.55666 11.8941 4.06427 11.8941 4.06427C11.8941 4.06427 13.9344 1.60425 15.2947 3.96916C17.5595 7.95825 15.6075 12.7084 15.6075 12.7084C15.6075 12.7084 14.8458 14.0064 12.7918 13.4764C12.7918 13.4764 11.3431 16.2762 8.26216 14.2851C8.26216 14.2851 5.01793 15.9772 3.86851 13.1977C3.86851 13.1977 -0.103434 14.5841 0.00538613 10.5338Z" fill="#DB9C7C"/>
</svg>
