<svg width="65" height="96" viewBox="0 0 65 96" fill="none" xmlns="http://www.w3.org/2000/svg">
<path d="M64.8707 31.0113C64.483 37.0137 61.4147 41.9965 60.9044 44.1717C60.3942 46.347 60.9044 51.323 60.2649 56.3057C59.6254 61.2885 57.7069 85.0466 58.3464 91.8172C58.9859 98.5877 11.8049 95.5899 8.23996 93.5098C8.23996 93.5098 16.1862 79.3229 16.4039 73.4496C16.4788 71.4103 17.683 65.1428 14.3629 60.5339C12.6077 58.1071 8.75701 51.5541 5.51863 45.9052C4.26002 43.7163 3.08305 41.6566 2.1646 40.0319L0.184837 36.5175C0.184837 36.5175 -1.34591 8.03493 4.40289 5.09831C10.1517 2.16168 13.2472 1.64505 18.8531 1.39353C21.9896 1.28568 25.1032 0.818106 28.1329 0L41.2973 1.40714C41.2973 1.40714 49.7334 4.34377 53.0602 4.59528C56.387 4.8468 60.6051 12.0048 60.2173 16.6069C59.8295 21.209 65.2313 25.0361 64.8707 31.0113Z" fill="#FAA146"/>
</svg>
