<svg width="43" height="30" viewBox="0 0 43 30" fill="none" xmlns="http://www.w3.org/2000/svg">
<path d="M12.6604 0C12.6604 0 17.5057 8.64532 20.3714 10.3744C23.95 12.5599 30.8927 19.5592 33.3223 19.8842C35.7519 20.2093 44.4735 21.7516 42.7846 26.676C41.4002 30.7082 20.6344 30.1341 18.2533 28.1077C15.8721 26.0812 8.88793 18.8537 6.07763 19.0128C3.26733 19.1719 4.29869 29.4771 4.29869 29.4771H1.23229C1.23229 29.4771 0.159399 19.4554 0.027883 17.7194C-0.352823 12.6222 3.28811 8.86663 3.44731 5.96181C3.60652 3.05698 3.77264 0.885301 3.77264 0.885301L12.6604 0Z" fill="#16202E"/>
</svg>
