<svg width="42" height="42" viewBox="0 0 42 42" fill="none" xmlns="http://www.w3.org/2000/svg">
<path d="M25.1971 11H16.8129C13.1711 11 11 13.17 11 16.81V25.18C11 28.83 13.1711 31 16.8129 31H25.1871C28.8289 31 31 28.83 31 25.19V16.81C31.01 13.17 28.8389 11 25.1971 11ZM25.7874 18.7L20.1145 24.37C19.9745 24.51 19.7844 24.59 19.5843 24.59C19.3842 24.59 19.1941 24.51 19.054 24.37L16.2226 21.54C15.9325 21.25 15.9325 20.77 16.2226 20.48C16.5127 20.19 16.993 20.19 17.2831 20.48L19.5843 22.78L24.7268 17.64C25.017 17.35 25.4972 17.35 25.7874 17.64C26.0775 17.93 26.0775 18.4 25.7874 18.7Z" fill="#0049FC"/>
</svg>
