<svg width="20" height="20" viewBox="0 0 20 20" fill="none" xmlns="http://www.w3.org/2000/svg">
<path d="M14.9322 11.9334C14.7164 12.1426 14.6172 12.4451 14.6664 12.7417L15.4072 16.8417C15.4697 17.1892 15.3231 17.5409 15.0322 17.7417C14.7472 17.9501 14.3681 17.9751 14.0572 17.8084L10.3664 15.8834C10.2381 15.8151 10.0956 15.7784 9.94973 15.7742H9.7239C9.64557 15.7859 9.5689 15.8109 9.4989 15.8492L5.80723 17.7834C5.62473 17.8751 5.41807 17.9076 5.21557 17.8751C4.72223 17.7817 4.39307 17.3117 4.4739 16.8159L5.21557 12.7159C5.26473 12.4167 5.16557 12.1126 4.94973 11.9001L1.94057 8.9834C1.6889 8.73924 1.6014 8.37257 1.7164 8.04174C1.82807 7.71174 2.11307 7.4709 2.45723 7.41674L6.5989 6.8159C6.9139 6.7834 7.19057 6.59174 7.33223 6.3084L9.15723 2.56674C9.20057 2.4834 9.2564 2.40674 9.3239 2.34174L9.3989 2.2834C9.43807 2.24007 9.48307 2.20424 9.53307 2.17507L9.6239 2.14174L9.76557 2.0834H10.1164C10.4297 2.1159 10.7056 2.3034 10.8497 2.5834L12.6989 6.3084C12.8322 6.5809 13.0914 6.77007 13.3906 6.8159L17.5322 7.41674C17.8822 7.46674 18.1747 7.70841 18.2906 8.04174C18.3997 8.37591 18.3056 8.74257 18.0489 8.9834L14.9322 11.9334Z" fill="#FFE600"/>
</svg>
