<svg width="47" height="12" viewBox="0 0 47 12" fill="none" xmlns="http://www.w3.org/2000/svg">
<path d="M47 0V11.2518H44.5209C44.2371 9.72658 43.428 8.34871 42.234 7.35708C41.04 6.36545 39.5363 5.82257 37.9837 5.82257C36.4311 5.82257 34.9275 6.36545 33.7335 7.35708C32.5395 8.34871 31.7304 9.72658 31.4465 11.2518H30.0134C29.7256 9.7271 28.9138 8.35077 27.7184 7.36054C26.5229 6.37031 25.0189 5.82837 23.466 5.82837C21.9132 5.82837 20.4092 6.37031 19.2137 7.36054C18.0182 8.35077 17.2065 9.7271 16.9187 11.2518H15.5603C15.2724 9.7271 14.4607 8.35077 13.2652 7.36054C12.0698 6.37031 10.5657 5.82837 9.01287 5.82837C7.46004 5.82837 5.95597 6.37031 4.76051 7.36054C3.56505 8.35077 2.7533 9.7271 2.46547 11.2518H0V0H47Z" fill="#458DD1"/>
</svg>
