<svg width="21" height="21" viewBox="0 0 21 21" fill="none" xmlns="http://www.w3.org/2000/svg">
<path d="M4.72247 7.85403C4.63871 8.03253 4.56541 8.23204 4.50259 8.42104L1.12051 5.78552C2.83773 2.35202 6.37686 0 10.4709 0C13.2981 0 15.6645 1.03951 17.4759 2.73001L14.5231 5.62803C13.7588 4.91403 12.4395 4.06351 10.4709 4.06351C7.91607 4.06351 5.7172 5.61753 4.72247 7.85403Z" fill="#EA4335"/>
<path d="M4.16738 10.5001C4.16738 11.2246 4.29303 11.9281 4.51292 12.5791L1.13085 15.2065L1.12038 15.2146C0.408361 13.7866 0 12.1906 0 10.5001C0 8.80955 0.408361 7.21356 1.12038 5.78555L4.50245 8.42107C4.29303 9.07207 4.16738 9.77555 4.16738 10.5001Z" fill="#FBBC05"/>
<path d="M10.4707 16.947C12.0308 16.947 13.2245 16.5165 14.104 15.897L17.4023 18.459C15.6747 20.0655 13.2978 21 10.4707 21C6.37658 21 2.84792 18.648 1.13071 15.2145V15.2064L1.12024 15.2145L1.13071 15.204V15.2064L4.51279 12.579C5.35045 15.12 7.70637 16.947 10.4707 16.947Z" fill="#34A853"/>
<path d="M10.4706 8.59958H20.3027C20.4493 9.25058 20.5226 9.88058 20.5226 10.7311C20.5226 13.9336 19.3813 16.6321 17.4023 18.4591L14.104 15.8971C15.4966 14.9206 16.1249 13.4611 16.2401 12.4951H10.4706V8.59958Z" fill="#4285F4"/>
</svg>
