<svg width="13" height="16" viewBox="0 0 13 16" fill="none" xmlns="http://www.w3.org/2000/svg">
<path d="M10.5533 4.23375C10.3776 4.0754 10.187 3.93433 9.98415 3.81252C9.6664 3.61232 9.3327 3.43856 8.98643 3.29302C8.57419 3.11776 8.14902 2.97459 7.7147 2.86477C7.25588 2.74571 6.78352 2.68672 6.30948 2.68926C5.64857 2.64089 4.98932 2.80311 4.42648 3.15261C4.22379 3.30258 4.06129 3.50024 3.95342 3.72803C3.84556 3.95583 3.79567 4.20671 3.80817 4.4584C3.79792 4.74526 3.8791 5.02796 4.04003 5.26574C4.22925 5.5031 4.46935 5.69502 4.74264 5.82738C5.0986 6.01326 5.47301 6.16149 5.85979 6.26966C6.3282 6.40071 6.84814 6.54112 7.4196 6.69089C8.18545 6.89448 8.88806 7.11913 9.52744 7.3508C10.1021 7.56055 10.6403 7.85903 11.1224 8.23537C11.5481 8.58145 11.8913 9.01792 12.1271 9.51308C12.3826 10.0868 12.5051 10.7107 12.4855 11.3384C12.5051 12.085 12.3411 12.8251 12.0077 13.4936C11.7061 14.075 11.2641 14.5721 10.7219 14.9398C10.1418 15.3275 9.49325 15.6015 8.81078 15.7472C8.09034 15.9183 7.35209 16.0031 6.6116 15.9999C5.42085 16.0003 4.23674 15.8229 3.09853 15.4734C1.99278 15.1392 0.946974 14.6321 0 13.971L1.34903 11.3384C1.56703 11.5324 1.80219 11.7063 2.05164 11.8579C2.44511 12.0967 2.85345 12.31 3.27418 12.4967C3.78297 12.72 4.30938 12.9008 4.84803 13.0373C5.42644 13.1862 6.02133 13.2617 6.61863 13.262C8.3049 13.262 9.14101 12.7214 9.14101 11.6473C9.15367 11.334 9.05121 11.0268 8.85293 10.7838C8.6294 10.5211 8.35127 10.3103 8.0379 10.166C7.62559 9.96244 7.19513 9.79792 6.75213 9.67455L5.07287 9.19014C4.40263 9.00595 3.74734 8.77127 3.11259 8.4881C2.60101 8.27715 2.12658 7.98561 1.70737 7.62459C1.34706 7.30873 1.0635 6.91498 0.878267 6.47325C0.678604 5.9785 0.582944 5.44799 0.597226 4.91472C0.587229 4.18863 0.738405 3.46935 1.03988 2.80861C1.32576 2.20637 1.74647 1.67792 2.26945 1.26413C2.81535 0.84104 3.43463 0.522136 4.09625 0.323398C4.82099 0.10616 5.57391 -0.00267011 6.33055 0.000455711C7.37222 -0.0101901 8.40738 0.165764 9.38693 0.519968C10.2451 0.832338 11.0634 1.24471 11.825 1.74854L10.5533 4.23375Z" fill="#458DD1"/>
</svg>
