<svg width="24" height="24" viewBox="0 0 24 24" fill="none" xmlns="http://www.w3.org/2000/svg">
<path d="M12 16.33C9.61001 16.33 7.67001 14.39 7.67001 12C7.67001 9.61 9.61001 7.67 12 7.67C14.39 7.67 16.33 9.61 16.33 12C16.33 14.39 14.39 16.33 12 16.33ZM12 9.17C10.44 9.17 9.17001 10.44 9.17001 12C9.17001 13.56 10.44 14.83 12 14.83C13.56 14.83 14.83 13.56 14.83 12C14.83 10.44 13.56 9.17 12 9.17Z" fill="#1C1C1E" fill-opacity="0.54"/>
<path d="M12 21.02C8.23999 21.02 4.68999 18.82 2.24999 15C1.18999 13.35 1.18999 10.66 2.24999 9C4.69999 5.18 8.24999 2.98 12 2.98C15.75 2.98 19.3 5.18 21.74 9C22.8 10.65 22.8 13.34 21.74 15C19.3 18.82 15.75 21.02 12 21.02ZM12 4.48C8.76999 4.48 5.67999 6.42 3.51999 9.81C2.76999 10.98 2.76999 13.02 3.51999 14.19C5.67999 17.58 8.76999 19.52 12 19.52C15.23 19.52 18.32 17.58 20.48 14.19C21.23 13.02 21.23 10.98 20.48 9.81C18.32 6.42 15.23 4.48 12 4.48Z" fill="#1C1C1E" fill-opacity="0.54"/>
</svg>
