<svg width="28" height="28" viewBox="0 0 28 28" fill="none" xmlns="http://www.w3.org/2000/svg">
<path d="M24.5773 14.0468C24.577 19.3796 20.5893 23.8698 15.2939 24.5V17.3753H17.1655C17.4278 17.3767 17.6486 17.179 17.6759 16.918L17.8779 15.3761C17.892 15.2297 17.8459 15.0838 17.7503 14.972C17.6525 14.8563 17.5084 14.7901 17.3569 14.7912H15.2939V12.9834C15.2939 12.3961 15.77 11.92 16.3573 11.92H17.4207C17.5579 11.9229 17.6905 11.8704 17.7885 11.7744C17.8865 11.6783 17.9418 11.5469 17.9417 11.4096V9.69755C17.9383 9.43118 17.7383 9.20844 17.4739 9.17649C17.4739 9.17649 16.7082 9.11269 15.7937 9.11269C13.518 9.11269 12.2632 10.4632 12.2632 12.9196V14.7912H10.1364C9.84866 14.7912 9.61537 15.0245 9.61537 15.3123V16.8542C9.61537 17.142 9.84866 17.3753 10.1364 17.3753H12.1994V24.4149C6.70324 23.4405 2.92026 18.3494 3.57321 12.8058C4.22615 7.26222 9.08849 3.18939 14.6607 3.51862C20.2328 3.84786 24.5817 8.46494 24.5773 14.0468Z" fill="#2474E1"/>
</svg>
