<svg width="69" height="212" viewBox="0 0 69 212" fill="none" xmlns="http://www.w3.org/2000/svg">
<path d="M26.1667 3.5064C26.1667 3.5064 17.5001 14.5461 14.4596 21.8494C11.4192 29.1527 6.3156 45.1697 6.99427 57.5724C7.67294 69.9751 11.7449 93.2547 10.5641 98.5169C9.38318 103.779 8.18873 114.663 6.91283 118.399C5.63693 122.136 0.533336 133.013 0.0243347 144.222C-0.484667 155.431 7.16393 204.709 6.81102 209.321C6.45812 213.932 15.4844 211.192 15.4844 211.192C15.4844 211.192 18.5452 166.681 20.2351 159.032C21.925 151.383 23.9746 125.391 25.5016 123.526C27.0286 121.661 31.216 102.287 30.5712 99.2289C29.9265 96.1706 47.2665 50.2962 48.2913 41.1214C49.3161 31.9465 68.0745 4.74736 68.0745 4.74736C68.0745 4.74736 52.5262 -5.05139 26.1667 3.5064Z" fill="#8E4F3A"/>
</svg>
