<svg width="12" height="12" viewBox="0 0 12 12" fill="none" xmlns="http://www.w3.org/2000/svg">
<path d="M6.01738 11.8388C5.1656 11.8498 4.32026 11.6898 3.53151 11.3683C2.81982 11.0758 2.17452 10.6428 1.63424 10.0953C1.10933 9.55719 0.697338 8.91971 0.422481 8.22029C0.138945 7.50469 -0.00443626 6.74134 0.000104572 5.97171C-0.00416345 5.18763 0.134243 4.40931 0.408619 3.67471C0.67637 2.96718 1.08641 2.32199 1.61345 1.77898C2.15179 1.21904 2.80006 0.77622 3.51765 0.478268C4.31705 0.151117 5.17437 -0.011264 6.03813 0.000876098C6.89536 -0.0134929 7.74632 0.149027 8.53782 0.478268C9.2431 0.77762 9.88119 1.2152 10.4143 1.76515C10.9311 2.30302 11.3317 2.94119 11.5915 3.64011C11.862 4.34935 12.0004 5.10203 12 5.86102C12 6.05474 12 6.23463 12 6.40759C11.9954 6.55431 11.9768 6.70026 11.9446 6.84348H3.09528C3.12838 7.25919 3.23877 7.6651 3.42074 8.04041C3.59077 8.38239 3.82598 8.68792 4.11318 8.93984C4.38834 9.18326 4.70492 9.3754 5.04795 9.50717C5.39879 9.63406 5.7689 9.69959 6.14201 9.70089C6.71895 9.70052 7.28623 9.55287 7.79002 9.27193C8.26184 9.03143 8.63605 8.63551 8.84942 8.15111L11.356 8.84298C10.9112 9.74113 10.2101 10.4875 9.34107 10.9878C8.33384 11.5745 7.1829 11.8692 6.01738 11.8388ZM8.98792 4.92008C8.94874 4.13251 8.6093 3.38981 8.03928 2.84446C7.47563 2.3235 6.72941 2.04514 5.96197 2.06957C5.21563 2.06261 4.4957 2.34538 3.95389 2.8583C3.68617 3.11374 3.46787 3.4163 3.30993 3.75082C3.13978 4.11378 3.04106 4.50603 3.01912 4.90624L8.98792 4.92008Z" fill="#458DD1"/>
</svg>
