<svg width="58" height="207" viewBox="0 0 58 207" fill="none" xmlns="http://www.w3.org/2000/svg">
<path d="M34.0281 6.67803C34.2157 8.81112 34.534 10.9307 34.9812 13.0249C35.4986 14.7255 47.236 58.1875 48.4614 74.8948C49.6869 91.602 52.7234 105.765 53.2272 109.33C53.731 112.894 52.7166 124.833 51.6953 127.901C50.6741 130.969 56.8083 203.41 57.3257 205.111C57.8432 206.811 53.2408 207.321 49.9865 206.811C46.7322 206.301 30.3721 153.635 31.3933 144.771C32.4145 135.907 33.4358 117.01 30.5423 109.33C27.6488 101.649 1.54617 46.0652 1.37597 42.6639C1.20576 39.2626 -9.91202 -19.4441 34.0281 6.67803Z" fill="#8E4F3A"/>
</svg>
