<svg width="50" height="50" viewBox="0 0 50 50" fill="none" xmlns="http://www.w3.org/2000/svg">
<path d="M25.0236 3.38541C33.5485 3.38541 41.4678 10.2121 41.4678 18.8244C41.4678 24.5171 39.5445 28.5418 36.3214 33.2341C32.3447 39.0236 27.1512 44.4384 25.5157 46.0971C25.2287 46.3882 24.7703 46.3882 24.4833 46.0971C22.8478 44.4384 17.6543 39.0236 13.6776 33.2341C10.4545 28.5418 8.53125 24.5171 8.53125 18.8244C8.53125 10.2121 16.4503 3.38541 24.9752 3.38541" stroke="#121219" stroke-width="2" stroke-linecap="round"/>
<path d="M31.1749 19.734C31.1749 23.1782 28.419 26.0266 25.009 26.0266C21.5991 26.0266 18.8237 23.1782 18.8237 19.734C18.8237 16.2897 21.5991 13.6779 25.009 13.6779C28.419 13.6779 31.1749 16.2897 31.1749 19.734Z" stroke="#121219" stroke-width="2"/>
</svg>
